# Blender 3.6.1
# www.blender.org
mtllib magazine.mtl
o magazine
v -0.143773 0.008233 0.316653
v -0.143291 0.098239 0.316673
v -0.124934 0.008208 -0.027688
v -0.124452 0.098214 -0.027668
v 0.058707 0.007147 0.327731
v 0.059189 0.097152 0.327751
v 0.077546 0.007122 -0.016610
v 0.078028 0.097128 -0.016590
vn -0.9985 0.0054 -0.0546
vn 0.0546 -0.0001 -0.9985
vn 0.9985 -0.0054 0.0546
vn -0.0546 0.0001 0.9985
vn -0.0054 -1.0000 -0.0002
vn 0.0054 1.0000 0.0002
vt 0.375000 0.000000
vt 0.625000 0.000000
vt 0.625000 0.250000
vt 0.375000 0.250000
vt 0.625000 0.500000
vt 0.375000 0.500000
vt 0.625000 0.750000
vt 0.375000 0.750000
vt 0.625000 1.000000
vt 0.375000 1.000000
vt 0.125000 0.500000
vt 0.125000 0.750000
vt 0.875000 0.500000
vt 0.875000 0.750000
s 0
f 1/1/1 2/2/1 4/3/1 3/4/1
f 3/4/2 4/3/2 8/5/2 7/6/2
f 7/6/3 8/5/3 6/7/3 5/8/3
f 5/8/4 6/7/4 2/9/4 1/10/4
f 3/11/5 7/6/5 5/8/5 1/12/5
f 8/5/6 4/13/6 2/14/6 6/7/6
